<svg width="25" height="25" viewBox="0 0 25 25" fill="none" xmlns="http://www.w3.org/2000/svg">
<path d="M12.4999 0.899994C12.7883 0.899994 13.0649 1.01457 13.2689 1.21852C13.4728 1.42246 13.5874 1.69907 13.5874 1.98749V23.0125C13.5874 23.3009 13.4728 23.5775 13.2689 23.7815C13.0649 23.9854 12.7883 24.1 12.4999 24.1C12.2115 24.1 11.9349 23.9854 11.7309 23.7815C11.527 23.5775 11.4124 23.3009 11.4124 23.0125V1.98749C11.4124 1.69907 11.527 1.42246 11.7309 1.21852C11.9349 1.01457 12.2115 0.899994 12.4999 0.899994ZM17.9374 5.24999C18.2258 5.24999 18.5024 5.36457 18.7064 5.56852C18.9103 5.77246 19.0249 6.04907 19.0249 6.33749V18.6625C19.0249 18.9509 18.9103 19.2275 18.7064 19.4315C18.5024 19.6354 18.2258 19.75 17.9374 19.75C17.649 19.75 17.3724 19.6354 17.1684 19.4315C16.9645 19.2275 16.8499 18.9509 16.8499 18.6625V6.33749C16.8499 6.04907 16.9645 5.77246 17.1684 5.56852C17.3724 5.36457 17.649 5.24999 17.9374 5.24999ZM8.1499 6.33749C8.1499 6.04907 8.03533 5.77246 7.83138 5.56852C7.62744 5.36457 7.35083 5.24999 7.0624 5.24999C6.77398 5.24999 6.49737 5.36457 6.29342 5.56852C6.08948 5.77246 5.9749 6.04907 5.9749 6.33749V18.6625C5.9749 18.9509 6.08948 19.2275 6.29342 19.4315C6.49737 19.6354 6.77398 19.75 7.0624 19.75C7.35083 19.75 7.62744 19.6354 7.83138 19.4315C8.03533 19.2275 8.1499 18.9509 8.1499 18.6625V6.33749ZM23.0124 9.59999C23.3008 9.59999 23.5774 9.71457 23.7814 9.91852C23.9853 10.1225 24.0999 10.3991 24.0999 10.6875V14.3125C24.0999 14.6009 23.9853 14.8775 23.7814 15.0815C23.5774 15.2854 23.3008 15.4 23.0124 15.4C22.724 15.4 22.4474 15.2854 22.2434 15.0815C22.0395 14.8775 21.9249 14.6009 21.9249 14.3125V10.6875C21.9249 10.3991 22.0395 10.1225 22.2434 9.91852C22.4474 9.71457 22.724 9.59999 23.0124 9.59999ZM3.0749 10.6875C3.0749 10.3991 2.96033 10.1225 2.75638 9.91852C2.55244 9.71457 2.27583 9.59999 1.9874 9.59999C1.69898 9.59999 1.42237 9.71457 1.21842 9.91852C1.01448 10.1225 0.899902 10.3991 0.899902 10.6875V14.3125C0.899902 14.6009 1.01448 14.8775 1.21842 15.0815C1.42237 15.2854 1.69898 15.4 1.9874 15.4C2.27583 15.4 2.55244 15.2854 2.75638 15.0815C2.96033 14.8775 3.0749 14.6009 3.0749 14.3125V10.6875Z" fill="black"/>
</svg>
