<svg width="21" height="21" viewBox="0 0 21 21" fill="none" xmlns="http://www.w3.org/2000/svg">
<path fill-rule="evenodd" clip-rule="evenodd" d="M17.25 1.5C17.25 1.20163 17.1315 0.915483 16.9205 0.704505C16.7095 0.493526 16.4234 0.375 16.125 0.375C15.8266 0.375 15.5405 0.493526 15.3295 0.704505C15.1185 0.915483 15 1.20163 15 1.5V2.625H1.5C1.20163 2.625 0.915483 2.74353 0.704505 2.95451C0.493526 3.16548 0.375 3.45163 0.375 3.75C0.375 4.04837 0.493526 4.33452 0.704505 4.54549C0.915483 4.75647 1.20163 4.875 1.5 4.875H15V6C15 6.29837 15.1185 6.58452 15.3295 6.79549C15.5405 7.00647 15.8266 7.125 16.125 7.125C16.4234 7.125 16.7095 7.00647 16.9205 6.79549C17.1315 6.58452 17.25 6.29837 17.25 6V4.875H19.5C19.7984 4.875 20.0845 4.75647 20.2955 4.54549C20.5065 4.33452 20.625 4.04837 20.625 3.75C20.625 3.45163 20.5065 3.16548 20.2955 2.95451C20.0845 2.74353 19.7984 2.625 19.5 2.625H17.25V1.5ZM1.5 9.375C1.20163 9.375 0.915483 9.49353 0.704505 9.70451C0.493526 9.91548 0.375 10.2016 0.375 10.5C0.375 10.7984 0.493526 11.0845 0.704505 11.2955C0.915483 11.5065 1.20163 11.625 1.5 11.625H3.75V12.75C3.75 13.0484 3.86853 13.3345 4.07951 13.5455C4.29048 13.7565 4.57663 13.875 4.875 13.875C5.17337 13.875 5.45952 13.7565 5.67049 13.5455C5.88147 13.3345 6 13.0484 6 12.75V11.625H19.5C19.7984 11.625 20.0845 11.5065 20.2955 11.2955C20.5065 11.0845 20.625 10.7984 20.625 10.5C20.625 10.2016 20.5065 9.91548 20.2955 9.70451C20.0845 9.49353 19.7984 9.375 19.5 9.375H6V8.25C6 7.95163 5.88147 7.66548 5.67049 7.45451C5.45952 7.24353 5.17337 7.125 4.875 7.125C4.57663 7.125 4.29048 7.24353 4.07951 7.45451C3.86853 7.66548 3.75 7.95163 3.75 8.25V9.375H1.5ZM0.375 17.25C0.375 16.9516 0.493526 16.6655 0.704505 16.4545C0.915483 16.2435 1.20163 16.125 1.5 16.125H15V15C15 14.7016 15.1185 14.4155 15.3295 14.2045C15.5405 13.9935 15.8266 13.875 16.125 13.875C16.4234 13.875 16.7095 13.9935 16.9205 14.2045C17.1315 14.4155 17.25 14.7016 17.25 15V16.125H19.5C19.7984 16.125 20.0845 16.2435 20.2955 16.4545C20.5065 16.6655 20.625 16.9516 20.625 17.25C20.625 17.5484 20.5065 17.8345 20.2955 18.0455C20.0845 18.2565 19.7984 18.375 19.5 18.375H17.25V19.5C17.25 19.7984 17.1315 20.0845 16.9205 20.2955C16.7095 20.5065 16.4234 20.625 16.125 20.625C15.8266 20.625 15.5405 20.5065 15.3295 20.2955C15.1185 20.0845 15 19.7984 15 19.5V18.375H1.5C1.20163 18.375 0.915483 18.2565 0.704505 18.0455C0.493526 17.8345 0.375 17.5484 0.375 17.25Z" fill="black"/>
</svg>
