<svg width="18" height="30" viewBox="0 0 12 28" fill="none" xmlns="http://www.w3.org/2000/svg">
<path d="M6.00014 24C6.33782 24 6.6722 23.9335 6.98418 23.8043C7.29616 23.675 7.57963 23.4856 7.81841 23.2468C8.05719 23.0081 8.2466 22.7246 8.37583 22.4126C8.50505 22.1006 8.57157 21.7663 8.57157 21.4286C8.57157 21.0909 8.50505 20.7565 8.37583 20.4445C8.2466 20.1326 8.05719 19.8491 7.81841 19.6103C7.57963 19.3715 7.29616 19.1821 6.98418 19.0529C6.6722 18.9237 6.33782 18.8571 6.00014 18.8571C5.31815 18.8571 4.6641 19.1281 4.18186 19.6103C3.69963 20.0925 3.42871 20.7466 3.42871 21.4286C3.42871 22.1106 3.69963 22.7646 4.18186 23.2468C4.6641 23.7291 5.31815 24 6.00014 24Z" fill="black"/>
<path d="M6 0C4.86336 0 3.77327 0.451529 2.96954 1.25526C2.16582 2.05898 1.71429 3.14907 1.71429 4.28571V17.2286C0.887429 18.0725 0.328123 19.1417 0.106505 20.3022C-0.115114 21.4627 0.0108194 22.6628 0.468513 23.752C0.926207 24.8413 1.69529 25.7711 2.67932 26.425C3.66335 27.0789 4.81853 27.4277 6 27.4277C7.18147 27.4277 8.33665 27.0789 9.32068 26.425C10.3047 25.7711 11.0738 24.8413 11.5315 23.752C11.9892 22.6628 12.1151 21.4627 11.8935 20.3022C11.6719 19.1417 11.1126 18.0725 10.2857 17.2286V4.28571C10.2857 3.14907 9.83418 2.05898 9.03046 1.25526C8.22673 0.451529 7.13664 0 6 0ZM3.42857 4.28571C3.42857 3.60373 3.69949 2.94967 4.18173 2.46744C4.66396 1.9852 5.31802 1.71428 6 1.71428C6.68198 1.71428 7.33604 1.9852 7.81827 2.46744C8.30051 2.94967 8.57143 3.60373 8.57143 4.28571V17.9777L8.85771 18.2348C9.50473 18.8135 9.96081 19.5749 10.1656 20.4184C10.3704 21.2619 10.3142 22.1477 10.0045 22.9585C9.69484 23.7694 9.14623 24.4671 8.43131 24.9594C7.71639 25.4516 6.86885 25.7152 6.00086 25.7152C5.13286 25.7152 4.28532 25.4516 3.5704 24.9594C2.85548 24.4671 2.30688 23.7694 1.99719 22.9585C1.68751 22.1477 1.63134 21.2619 1.83612 20.4184C2.04091 19.5749 2.49698 18.8135 3.144 18.2348L3.42857 17.9777V4.28571Z" fill="black"/>
</svg>
